<svg viewBox="0 0 32 32" xmlns="http://www.w3.org/2000/svg">
  <defs>
    <linearGradient id="gradient" x1="0%" y1="0%" x2="100%" y2="100%">
      <stop offset="0%" style="stop-color:#10b981;stop-opacity:1" />
      <stop offset="100%" style="stop-color:#059669;stop-opacity:1" />
    </linearGradient>
  </defs>
  
  <!-- Background circle -->
  <circle cx="16" cy="16" r="16" fill="url(#gradient)"/>
  
  <!-- Main upward-curving shape (swoosh/checkmark) -->
  <path d="M8 20C8 20 10 16 14 14C18 12 22 14 26 18C28 20 28 22 26 24C24 26 22 26 20 24C18 22 16 20 14 18C12 16 10 18 8 20Z" fill="white"/>
  
  <!-- Small leaf/droplet element -->
  <path d="M10 16C10 16 11 14 12 15C13 16 12 17 11 18C10 17 10 16 10 16Z" fill="white"/>
</svg>
